<?xml version="1.0" encoding="UTF-8"?>
<!-- Created with Inkscape (http://www.inkscape.org/) -->
<svg width="4.2248mm" height="4.2148mm" version="1.1" viewBox="0 0 4.2248 4.2148" xmlns="http://www.w3.org/2000/svg" xmlns:cc="http://creativecommons.org/ns#" xmlns:dc="http://purl.org/dc/elements/1.1/" xmlns:rdf="http://www.w3.org/1999/02/22-rdf-syntax-ns#">
 <metadata>
  <rdf:RDF>
   <cc:Work rdf:about="">
    <dc:format>image/svg+xml</dc:format>
    <dc:type rdf:resource="http://purl.org/dc/dcmitype/StillImage"/>
    <dc:title/>
   </cc:Work>
  </rdf:RDF>
 </metadata>
 <g transform="translate(-98.424 -166.3)">
  <path d="m100.54 166.3a2.1263 2.1167 0 0 0-2.1076 1.8521h4.2147a2.1263 2.1167 0 0 0-2.1071-1.8521z" fill="#ff6200" style="paint-order:normal"/>
  <path d="m98.435 168.68a2.1263 2.1167 0 0 0 1.8413 1.8335v-1.8335z" fill="#ffd1b3" style="paint-order:normal"/>
  <path d="m100.81 168.68v1.833a2.1263 2.1167 0 0 0 1.8418-1.833z" fill="#ffa062" style="paint-order:normal"/>
  <path d="m100.53 166.3a2.1263 2.1167 0 0 0-2.1076 1.8521h4.2147a2.1263 2.1167 0 0 0-2.1071-1.8521z" fill="#ff6200" style="paint-order:normal"/>
  <path d="m98.425 168.68a2.1263 2.1167 0 0 0 1.8413 1.8335v-1.8335z" fill="#ffd1b3" style="paint-order:normal"/>
  <path d="m100.8 168.68v1.833a2.1263 2.1167 0 0 0 1.8418-1.833z" fill="#ffa062" style="paint-order:normal"/>
 </g>
</svg>
